<svg width="40" height="40" viewBox="0 0 40 40" fill="none" xmlns="http://www.w3.org/2000/svg">
<rect width="40" height="40" rx="20" fill="#94F2E8"/>
<path d="M14 27C16.2091 27 18 25.2091 18 23C18 20.7909 16.2091 19 14 19C11.7909 19 10 20.7909 10 23C10 25.2091 11.7909 27 14 27Z" stroke="black" stroke-width="2" stroke-linecap="round" stroke-linejoin="round"/>
<path d="M26 27C28.2091 27 30 25.2091 30 23C30 20.7909 28.2091 19 26 19C23.7909 19 22 20.7909 22 23C22 25.2091 23.7909 27 26 27Z" stroke="black" stroke-width="2" stroke-linecap="round" stroke-linejoin="round"/>
<path d="M22 23C22 22.4696 21.7893 21.9609 21.4142 21.5858C21.0391 21.2107 20.5304 21 20 21C19.4696 21 18.9609 21.2107 18.5858 21.5858C18.2107 21.9609 18 22.4696 18 23" stroke="black" stroke-width="2" stroke-linecap="round" stroke-linejoin="round"/>
<path d="M10.5 21L13 15C13.7 13.7 14.4 13 16 13" stroke="black" stroke-width="2" stroke-linecap="round" stroke-linejoin="round"/>
<path d="M29.5 21L27 15C26.3 13.7 25.5 13 24 13" stroke="black" stroke-width="2" stroke-linecap="round" stroke-linejoin="round"/>
</svg>
