<svg width="96" height="96" viewBox="0 0 96 96" fill="none" xmlns="http://www.w3.org/2000/svg">
<rect x="1" y="1" width="94" height="94" rx="7" fill="#AFEBF0"/>
<rect x="1" y="1" width="94" height="94" rx="7" stroke="#153E43" stroke-width="2"/>
<path d="M50.3877 52.6317C40.5527 62.5052 41.7672 72.3962 46.2332 79.846C35.9729 75.471 26.5002 58.125 39.6252 42.375C53.6252 28.375 51.0002 22.25 51.0002 17C55.3752 24.875 62.2107 40.765 50.3877 52.6317Z" fill="url(#paint0_linear_9_69)"/>
<path d="M48.3682 80C46.2752 75.4622 44.0912 64.4862 50.4332 58.125C61.8572 46.3475 60.0232 36.0278 59.7694 35.4048L59.7502 35.375C59.7554 35.375 59.7624 35.3855 59.7694 35.4048C60.2402 36.1468 69.2002 50.6822 62.6044 66.875C66.4107 64.677 68.0294 61.6758 68.5002 60.75C66.5297 76.717 56.4567 79.3455 48.3682 80ZM44.8752 33.625C39.6252 36.8327 27.7567 45 27.0567 55.5C26.3567 66 32.3067 70.375 35.8067 73.875C34.0567 71.25 30.5567 64.775 30.5567 56.375C30.5567 47.975 40.2079 37.4173 44.8752 33.625Z" fill="url(#paint1_linear_9_69)"/>
<path d="M47.9377 46.6406C46.763 45.9997 45.1125 45 43.5627 45C41.2658 45 39.1877 46.3639 39.1877 50.4688C39.1877 55.827 40.3427 59.6672 42.1091 61.9936C42.7358 62.8205 44.2638 62.5634 44.9167 61.7355C45.352 61.1831 45.8125 60.1616 46.297 58.6719C46.6164 57.8286 47.2727 57.0269 47.9377 57.0312C48.5961 57.0312 49.2611 57.8373 49.5783 58.6719C50.0628 60.1616 50.5233 61.182 50.9586 61.7344C51.6116 62.5645 53.1461 62.8205 53.7663 61.9936C55.5327 59.6672 56.6877 55.8281 56.6877 50.4688C56.6877 46.3781 54.6008 45 52.3127 45C50.7563 45 49.1189 45.9964 47.9377 46.6406ZM47.9377 46.6406L51.2189 48.2812L47.9377 46.6406Z" fill="#B5FBEA"/>
<path d="M47.9377 46.6406C46.763 45.9997 45.1125 45 43.5627 45C41.2658 45 39.1877 46.3639 39.1877 50.4688C39.1877 55.827 40.3427 59.6672 42.1091 61.9936C42.7358 62.8205 44.2638 62.5634 44.9167 61.7355C45.352 61.1831 45.8125 60.1616 46.297 58.6719C46.6164 57.8286 47.2727 57.0269 47.9377 57.0312C48.5961 57.0312 49.2611 57.8373 49.5783 58.6719C50.0628 60.1616 50.5233 61.182 50.9586 61.7344C51.6116 62.5645 53.1461 62.8205 53.7663 61.9936C55.5327 59.6672 56.6877 55.8281 56.6877 50.4688C56.6877 46.3781 54.6008 45 52.3127 45C50.7563 45 49.1189 45.9964 47.9377 46.6406ZM47.9377 46.6406L51.2189 48.2812" stroke="#153E43" stroke-width="2.1875" stroke-linecap="round" stroke-linejoin="round"/>
<defs>
<linearGradient id="paint0_linear_9_69" x1="52.3269" y1="-1.64431" x2="12.8717" y2="70.1903" gradientUnits="userSpaceOnUse">
<stop stop-color="#3FD2E2"/>
<stop offset="1" stop-color="#23737C"/>
</linearGradient>
<linearGradient id="paint1_linear_9_69" x1="60.3802" y1="19.8671" x2="45.1856" y2="85.3398" gradientUnits="userSpaceOnUse">
<stop stop-color="#3FD2E2"/>
<stop offset="1" stop-color="#23737C"/>
</linearGradient>
</defs>
</svg>
